HIERARCHY
ROOT Hip
{
    OFFSET 0.0 0.0 0.0
    CHANNELS 6 Xposition Yposition Zposition Zrotation Xrotation Yrotation
    JOINT RightHip
    {
        OFFSET -13.521650314331055 0.0 0.0
        CHANNELS 3 Zrotation Xrotation Yrotation
        JOINT RightKnee
        {
            OFFSET 0.0 0.0 -48.099876403808594
            CHANNELS 3 Zrotation Xrotation Yrotation
            JOINT RightAnkle
            {
                OFFSET 0.0 0.0 -45.817779541015625
                CHANNELS 3 Zrotation Xrotation Yrotation
                End Site
                {
                    OFFSET 0.0 -18.327112197875977 0.0
                }
            }
        }
    }
    JOINT LeftHip
    {
        OFFSET 13.521650314331055 0.0 0.0
        CHANNELS 3 Zrotation Xrotation Yrotation
        JOINT LeftKnee
        {
            OFFSET 0.0 0.0 -48.099876403808594
            CHANNELS 3 Zrotation Xrotation Yrotation
            JOINT LeftAnkle
            {
                OFFSET 0.0 0.0 -45.817779541015625
                CHANNELS 3 Zrotation Xrotation Yrotation
                End Site
                {
                    OFFSET 0.0 -18.327112197875977 0.0
                }
            }
        }
    }
    JOINT Spine
    {
        OFFSET 0.0 0.0 24.278772354125977
        CHANNELS 3 Zrotation Xrotation Yrotation
        JOINT Thorax
        {
            OFFSET 0.0 0.0 24.261747360229492
            CHANNELS 3 Zrotation Xrotation Yrotation
            JOINT Neck
            {
                OFFSET 0.0 0.0 11.935837745666504
                CHANNELS 3 Zrotation Xrotation Yrotation
                End Site
                {
                    OFFSET 0.0 0.0 4.7743353843688965
                }
            }
            JOINT LeftShoulder
            {
                OFFSET 15.132634162902832 0.0 0.0
                CHANNELS 3 Zrotation Xrotation Yrotation
                JOINT LeftElbow
                {
                    OFFSET 27.791358947753906 0.0 0.0
                    CHANNELS 3 Zrotation Xrotation Yrotation
                    JOINT LeftWrist
                    {
                        OFFSET 23.395803451538086 0.0 0.0
                        CHANNELS 3 Zrotation Xrotation Yrotation
                        End Site
                        {
                            OFFSET 9.358321189880371 0.0 0.0
                        }
                    }
                }
            }
            JOINT RightShoulder
            {
                OFFSET -15.132634162902832 0.0 0.0
                CHANNELS 3 Zrotation Xrotation Yrotation
                JOINT RightElbow
                {
                    OFFSET -27.791358947753906 0.0 0.0
                    CHANNELS 3 Zrotation Xrotation Yrotation
                    JOINT RightWrist
                    {
                        OFFSET -23.395803451538086 0.0 0.0
                        CHANNELS 3 Zrotation Xrotation Yrotation
                        End Site
                        {
                            OFFSET -9.358321189880371 0.0 0.0
                        }
                    }
                }
            }
        }
    }
}
MOTION
Frames: 16
Frame Time: 0.03333333333333333
128.27455858917926 508.0462685336695 632.7027596777154 -112.24631708 -35.34875664 -120.47814136 -0.28424802 -11.00959302 7.88666243 4.04655277 18.77362093 -4.84800022 0.0 0.0 0.0 -0.67837125 -1.89498148 -4.40725897 -1.34015282 16.84469555 6.977227 0.0 0.0 0.0 0.06555152 18.45551882 -2.5128552 -1.60713009 0.0 0.0 -19.81784576 4.5346857 1.62729352 -21.49826501 -2.02531617 58.4663327 -78.55921211 0.0 0.0 0.0 0.0 0.0 12.54963621 -13.96628245 -47.14797779 64.02662128 0.0 0.0 0.0 0.0 0.0
128.26699412804095 508.0443381413494 633.0807531168501 -112.51296702 -35.27712313 -120.7361721 -0.28060988 -11.00047878 7.90884103 4.05406528 18.7688309 -4.83328844 0.0 0.0 0.0 -0.67551571 -1.86429306 -4.39977696 -1.34257863 16.83273147 6.98635995 0.0 0.0 0.0 0.06108633 18.45940395 -2.52207477 -1.61201381 0.0 0.0 -19.8571308 4.57232735 1.64518344 -21.56134231 -1.99470027 58.45870886 -78.57801909 0.0 0.0 0.0 0.0 0.0 12.62905444 -13.9567977 -47.13722793 64.03548374 0.0 0.0 0.0 0.0 0.0
128.24873158687313 508.0424145356784 633.4540152200009 -112.782236 -35.205502 -120.99668559 -0.27698784 -10.99158335 7.93095956 4.06160454 18.76423979 -4.81857318 0.0 0.0 0.0 -0.67268324 -1.83379881 -4.39238209 -1.34504695 16.82095666 6.99564018 0.0 0.0 0.0 0.05662965 18.46331061 -2.53135085 -1.61689959 0.0 0.0 -19.89633413 4.60991631 1.66304958 -21.62457203 -1.96417723 58.45098281 -78.59642529 0.0 0.0 0.0 0.0 0.0 12.70849234 -13.94736216 -47.12657108 64.0439616 0.0 0.0 0.0 0.0 0.0
128.21975995995774 508.0404978561368 633.8225512301486 -113.05415805 -35.13389665 -121.25972002 -0.273382 -10.98290616 7.9530171 4.06916973 18.75984685 -4.80385477 0.0 0.0 0.0 -0.6698739 -1.80349962 -4.38507464 -1.34755772 16.8093708 7.0050669 0.0 0.0 0.0 0.05218153 18.46723913 -2.54068274 -1.62178713 0.0 0.0 -19.93545345 4.64745047 1.680891 -21.68795165 -1.93374774 58.44315551 -78.61443109 0.0 0.0 0.0 0.0 0.0 12.78794568 -13.93797448 -47.11600821 64.05205394 0.0 0.0 0.0 0.0 0.0
128.18006924902403 508.0385882406871 634.1863666743584 -113.32876735 -35.06231068 -121.52531447 -0.26979244 -10.97444646 7.97501265 4.07676025 18.75565102 -4.78913336 0.0 0.0 0.0 -0.66708774 -1.77339653 -4.37785503 -1.35011079 16.79797373 7.01463927 0.0 0.0 0.0 0.04774198 18.47118977 -2.55006983 -1.62667613 0.0 0.0 -19.97448636 4.68492777 1.69870682 -21.75147878 -1.90341245 58.4352279 -78.63203686 0.0 0.0 0.0 0.0 0.0 12.86741024 -13.92863333 -47.10554031 64.05975994 0.0 0.0 0.0 0.0 0.0
128.12965046661122 508.0366858257577 634.5454673604256 -113.60609846 -34.9907476 -121.7935085 -0.26621918 -10.96620359 7.99694524 4.08437526 18.75165167 -4.77440888 0.0 0.0 0.0 -0.66432477 -1.74349045 -4.37072363 -1.35270593 16.78676533 7.0243563 0.0 0.0 0.0 0.04331131 18.47516252 -2.55951164 -1.63156629 0.0 0.0 -20.01343052 4.72234632 1.71649602 -21.81515085 -1.87317196 58.42720114 -78.64924272 0.0 0.0 0.0 0.0 0.0 12.94688172 -13.91933748 -47.09516837 64.0670786 0.0 0.0 0.0 0.0 0.0
128.06849563927855 508.03479074622805 634.8998593735103 -113.88618635 -34.9192112 -122.06434218 -0.26266224 -10.95817691 8.01881381 4.09201375 18.74784818 -4.75968159 0.0 0.0 0.0 -0.66158485 -1.71378227 -4.36368075 -1.35534287 16.77574539 7.03421704 0.0 0.0 0.0 0.0388898 18.47915756 -2.56900767 -1.63645732 0.0 0.0 -20.05228364 4.75970414 1.73425767 -21.87896529 -1.84302713 58.41907621 -78.66604901 0.0 0.0 0.0 0.0 0.0 13.02635604 -13.9100854 -47.0848932 64.07400903 0.0 0.0 0.0 0.0 0.0
127.99659781066187 508.03290313541277 635.249549072757 -114.16906623 -34.84770512 -122.33785608 -0.25912161 -10.95036579 8.04061724 4.09967506 18.74423947 -4.74495147 0.0 0.0 0.0 -0.65886793 -1.68427315 -4.3567267 -1.35802164 16.76491377 7.04422076 0.0 0.0 0.0 0.03447745 18.48317511 -2.57855708 -1.64134894 0.0 0.0 -20.09104341 4.79699914 1.75199086 -21.94291955 -1.81297853 58.41085392 -78.68245609 0.0 0.0 0.0 0.0 0.0 13.1058289 -13.9008759 -47.07471569 64.08055041 0.0 0.0 0.0 0.0 0.0
127.91395104437544 508.0310231250469 635.5945430879042 -114.45477367 -34.77623295 -122.61409179 -0.25559732 -10.94276949 8.06235456 4.10735847 18.7408248 -4.73021866 0.0 0.0 0.0 -0.6561741 -1.65496394 -4.34986164 -1.36074225 16.75427041 7.05436668 0.0 0.0 0.0 0.03007456 18.48721516 -2.58815932 -1.64624072 0.0 0.0 -20.12970735 4.83422924 1.76969471 -22.00701104 -1.78302674 58.40253542 -78.69846431 0.0 0.0 0.0 0.0 0.0 13.18529584 -13.89170781 -47.06463682 64.08670187 0.0 0.0 0.0 0.0 0.0
127.82055042675839 508.0291508452705 635.9348483158794 -114.74334443 -34.70479856 -122.8930914 -0.25208935 -10.93538734 8.08402468 4.11506315 18.73760342 -4.71548321 0.0 0.0 0.0 -0.65350328 -1.62585548 -4.34308591 -1.3635044 16.74381509 7.06465382 0.0 0.0 0.0 0.02568126 18.49127786 -2.59781381 -1.6511323 0.0 0.0 -20.1682732 4.87139243 1.78736836 -22.07123711 -1.75317244 58.3941219 -78.71407404 0.0 0.0 0.0 0.0 0.0 13.26475247 -13.88257964 -47.05465736 64.09246268 0.0 0.0 0.0 0.0 0.0
127.7163920694646 508.0272864246147 636.2704719173821 -115.0348144 -34.63340571 -123.1748974 -0.24859771 -10.92821856 8.10562646 4.12278812 18.7345743 -4.70074502 0.0 0.0 0.0 -0.65085542 -1.59694892 -4.33639984 -1.36630782 16.73354752 7.07508111 0.0 0.0 0.0 0.02129749 18.49536327 -2.60751986 -1.65602335 0.0 0.0 -20.20673879 4.90848679 1.80501081 -22.13559501 -1.72341642 58.38561437 -78.72928565 0.0 0.0 0.0 0.0 0.0 13.34419436 -13.87349017 -47.04477841 64.09783186 0.0 0.0 0.0 0.0 0.0
127.60147311189543 508.02542998998615 636.6014213134547 -115.32921982 -34.56205833 -123.45955319 -0.24512255 -10.92126259 8.1271589 4.13053261 18.73173658 -4.68600433 0.0 0.0 0.0 -0.64823066 -1.56824523 -4.32980374 -1.36915251 16.72346761 7.08564772 0.0 0.0 0.0 0.01692363 18.49947135 -2.61727695 -1.66091356 0.0 0.0 -20.24510153 4.94551012 1.82262096 -22.20008209 -1.6937595 58.37701386 -78.7440995 0.0 0.0 0.0 0.0 0.0 13.42361699 -13.8644381 -47.03500094 64.10280863 0.0 0.0 0.0 0.0 0.0
127.47579172347395 508.0235816666533 636.9277041820416 -115.62659733 -34.49076049 -123.74710271 -0.24166379 -10.91451889 8.14862108 4.1382958 18.72908931 -4.67126124 0.0 0.0 0.0 -0.64562889 -1.53974534 -4.32329775 -1.37203832 16.71357508 7.09635283 0.0 0.0 0.0 0.0125599 18.50360231 -2.6270844 -1.6658028 0.0 0.0 -20.28335919 4.98246028 1.84019801 -22.26469576 -1.66420235 58.36832141 -78.75851595 0.0 0.0 0.0 0.0 0.0 13.50301565 -13.85542229 -47.02532551 64.10739232 0.0 0.0 0.0 0.0 0.0
127.33934710576064 508.02174157823185 637.2493284545349 -115.92698358 -34.41951611 -124.03759064 -0.23822139 -10.90798654 8.17001182 4.14607672 18.72663167 -4.65651568 0.0 0.0 0.0 -0.64304981 -1.51145012 -4.3168818 -1.3749649 16.70386966 7.10719547 0.0 0.0 0.0 0.00820623 18.50775627 -2.63694146 -1.6706907 0.0 0.0 -20.32150962 5.01933536 1.85774096 -22.32943316 -1.63474546 58.3595381 -78.77253563 0.0 0.0 0.0 0.0 0.0 13.58238581 -13.84644161 -47.01575302 64.11158204 0.0 0.0 0.0 0.0 0.0
127.19213949440876 508.01990984667106 637.566302312309 -116.23041562 -34.34832932 -124.33106232 -0.23479549 -10.9016648 8.19132991 4.15387458 18.72436274 -4.6417676 0.0 0.0 0.0 -0.64049352 -1.48336045 -4.3105563 -1.37793206 16.69435117 7.11817469 0.0 0.0 0.0 0.0038629 18.5119331 -2.64684758 -1.67557692 0.0 0.0 -20.3595503 5.05613311 1.87524875 -22.39429154 -1.6053895 58.3506651 -78.78615888 0.0 0.0 0.0 0.0 0.0 13.66172292 -13.83749477 -47.00628442 64.11537713 0.0 0.0 0.0 0.0 0.0
127.03417016095968 508.01808659223985 637.8786341832424 -116.53693043 -34.27720413 -124.62756359 -0.23138599 -10.89555289 8.21257432 4.16168842 18.72228135 -4.62701697 0.0 0.0 0.0 -0.63796023 -1.45547731 -4.30432143 -1.38093973 16.68501939 7.12928961 0.0 0.0 0.0 -0.00046996 18.51613273 -2.65680209 -1.68046131 0.0 0.0 -20.39747902 5.09285153 1.89272056 -22.45926812 -1.57613536 58.34170347 -78.79938607 0.0 0.0 0.0 0.0 0.0 13.74102229 -13.82858049 -46.9969207 64.11877696 0.0 0.0 0.0 0.0 0.0
